<?xml version="1.0" encoding="UTF-8" standalone="no"?>
<!-- Generator: Adobe Illustrator 19.0.0, SVG Export Plug-In . SVG Version: 6.00 Build 0)  -->

<svg
   xmlns:dc="http://purl.org/dc/elements/1.1/"
   xmlns:cc="http://creativecommons.org/ns#"
   xmlns:rdf="http://www.w3.org/1999/02/22-rdf-syntax-ns#"
   xmlns:svg="http://www.w3.org/2000/svg"
   xmlns="http://www.w3.org/2000/svg"
   xmlns:sodipodi="http://sodipodi.sourceforge.net/DTD/sodipodi-0.dtd"
   xmlns:inkscape="http://www.inkscape.org/namespaces/inkscape"
   version="1.1"
   id="Capa_1"
   x="0px"
   y="0px"
   viewBox="0 0 511.99999 511.99999"
   xml:space="preserve"
   sodipodi:docname="arrow-down.svg"
   width="512"
   height="512"
   inkscape:version="0.92.1 r15371"><metadata
     id="metadata52"><rdf:RDF><cc:Work
         rdf:about=""><dc:format>image/svg+xml</dc:format><dc:type
           rdf:resource="http://purl.org/dc/dcmitype/StillImage" /><dc:title></dc:title></cc:Work></rdf:RDF></metadata><defs
     id="defs50" /><sodipodi:namedview
     pagecolor="#ffffff"
     bordercolor="#666666"
     borderopacity="1"
     objecttolerance="10"
     gridtolerance="10"
     guidetolerance="10"
     inkscape:pageopacity="0"
     inkscape:pageshadow="2"
     inkscape:window-width="1131"
     inkscape:window-height="572"
     id="namedview48"
     showgrid="false"
     fit-margin-top="0"
     fit-margin-left="0"
     fit-margin-right="0"
     fit-margin-bottom="0"
     inkscape:zoom="0.69297996"
     inkscape:cx="-44.0377"
     inkscape:cy="-6.3836034"
     inkscape:window-x="201"
     inkscape:window-y="183"
     inkscape:window-maximized="0"
     inkscape:current-layer="Capa_1" /><g
     id="g15"
     transform="matrix(2.1261487,0,0,2.1261487,0,0.00106578)"><path
       id="Expand_More"
       d="M 220.088,57.667 120.417,157.362 20.746,57.655 c -4.752,-4.752 -12.439,-4.752 -17.191,0 -4.74,4.752 -4.74,12.451 0,17.203 l 108.261,108.297 v 0 0 c 4.74,4.752 12.439,4.752 17.179,0 L 237.256,74.859 c 4.74,-4.752 4.74,-12.463 0,-17.215 -4.728,-4.729 -12.428,-4.729 -17.168,0.023 z"
       inkscape:connector-curvature="0" /><g
       id="g3" /><g
       id="g5" /><g
       id="g7" /><g
       id="g9" /><g
       id="g11" /><g
       id="g13" /></g><g
     id="g17"
     transform="translate(0,325.281)" /><g
     id="g19"
     transform="translate(0,325.281)" /><g
     id="g21"
     transform="translate(0,325.281)" /><g
     id="g23"
     transform="translate(0,325.281)" /><g
     id="g25"
     transform="translate(0,325.281)" /><g
     id="g27"
     transform="translate(0,325.281)" /><g
     id="g29"
     transform="translate(0,325.281)" /><g
     id="g31"
     transform="translate(0,325.281)" /><g
     id="g33"
     transform="translate(0,325.281)" /><g
     id="g35"
     transform="translate(0,325.281)" /><g
     id="g37"
     transform="translate(0,325.281)" /><g
     id="g39"
     transform="translate(0,325.281)" /><g
     id="g41"
     transform="translate(0,325.281)" /><g
     id="g43"
     transform="translate(0,325.281)" /><g
     id="g45"
     transform="translate(0,325.281)" /></svg>