<?xml version="1.0" encoding="UTF-8" standalone="no"?>
<!-- Created with Inkscape (http://www.inkscape.org/) -->

<svg
   xmlns:dc="http://purl.org/dc/elements/1.1/"
   xmlns:cc="http://creativecommons.org/ns#"
   xmlns:rdf="http://www.w3.org/1999/02/22-rdf-syntax-ns#"
   xmlns:svg="http://www.w3.org/2000/svg"
   xmlns="http://www.w3.org/2000/svg"
   xmlns:sodipodi="http://sodipodi.sourceforge.net/DTD/sodipodi-0.dtd"
   xmlns:inkscape="http://www.inkscape.org/namespaces/inkscape"
   width="512"
   height="512"
   viewBox="0 0 512.00002 511.99997"
   id="svg4184"
   version="1.1"
   inkscape:version="0.91 r13725"
   sodipodi:docname="cancel.svg">
  <defs
     id="defs4186" />
  <sodipodi:namedview
     id="base"
     pagecolor="#ffffff"
     bordercolor="#666666"
     borderopacity="1.0"
     inkscape:pageopacity="0.0"
     inkscape:pageshadow="2"
     inkscape:zoom="0.35"
     inkscape:cx="536.71531"
     inkscape:cy="-435.42834"
     inkscape:document-units="px"
     inkscape:current-layer="layer1"
     showgrid="false"
     fit-margin-top="0"
     fit-margin-left="0"
     fit-margin-right="0"
     fit-margin-bottom="0"
     units="px"
     inkscape:window-width="1920"
     inkscape:window-height="1028"
     inkscape:window-x="-8"
     inkscape:window-y="-8"
     inkscape:window-maximized="1" />
  <metadata
     id="metadata4189">
    <rdf:RDF>
      <cc:Work
         rdf:about="">
        <dc:format>image/svg+xml</dc:format>
        <dc:type
           rdf:resource="http://purl.org/dc/dcmitype/StillImage" />
        <dc:title></dc:title>
      </cc:Work>
    </rdf:RDF>
  </metadata>
  <g
     inkscape:label="Layer 1"
     inkscape:groupmode="layer"
     id="layer1"
     transform="translate(676.00102,415.06609)">
    <path
       inkscape:connector-curvature="0"
       d="m -649.05333,-415.06618 c -6.89638,0 -13.79319,2.63058 -19.05469,7.89258 -10.523,10.524 -10.524,27.58638 0,38.10938 l 209.99804,209.99804 -209.99804,209.998051 c -10.524,10.524 -10.524,27.58637 0,38.10937 10.524,10.524 27.58637,10.523 38.10937,0 L -420.0006,-120.9568 -210.00451,89.041241 c 10.524,10.524 27.58833,10.523 38.11133,0 10.523,-10.524 10.523,-27.58637 0,-38.10937 l -209.99609,-209.998051 209.99805,-209.99804 c 10.52299,-10.524 10.52299,-27.58638 0,-38.10938 -10.52401,-10.524 -27.58833,-10.524 -38.11133,0 L -420.0006,-197.17556 -629.99865,-407.1736 c -5.262,-5.262 -12.15831,-7.89258 -19.05468,-7.89258 z"
       id="path7" />
  </g>
</svg>
