<?xml version="1.0" encoding="UTF-8" standalone="no"?>
<!-- Generator: Adobe Illustrator 19.0.0, SVG Export Plug-In . SVG Version: 6.00 Build 0)  -->

<svg
   xmlns:dc="http://purl.org/dc/elements/1.1/"
   xmlns:cc="http://creativecommons.org/ns#"
   xmlns:rdf="http://www.w3.org/1999/02/22-rdf-syntax-ns#"
   xmlns:svg="http://www.w3.org/2000/svg"
   xmlns="http://www.w3.org/2000/svg"
   xmlns:sodipodi="http://sodipodi.sourceforge.net/DTD/sodipodi-0.dtd"
   xmlns:inkscape="http://www.inkscape.org/namespaces/inkscape"
   version="1.1"
   id="Capa_1"
   x="0px"
   y="0px"
   viewBox="0 0 512.00001 512"
   xml:space="preserve"
   sodipodi:docname="search.svg"
   width="512"
   height="512"
   inkscape:version="0.92.4 (5da689c313, 2019-01-14)"><metadata
   id="metadata109"><rdf:RDF><cc:Work
       rdf:about=""><dc:format>image/svg+xml</dc:format><dc:type
         rdf:resource="http://purl.org/dc/dcmitype/StillImage" /><dc:title></dc:title></cc:Work></rdf:RDF></metadata><defs
   id="defs107" /><sodipodi:namedview
   pagecolor="#ffffff"
   bordercolor="#666666"
   borderopacity="1"
   objecttolerance="10"
   gridtolerance="10"
   guidetolerance="10"
   inkscape:pageopacity="0"
   inkscape:pageshadow="2"
   inkscape:window-width="1149"
   inkscape:window-height="804"
   id="namedview105"
   showgrid="false"
   fit-margin-top="0"
   fit-margin-left="0"
   fit-margin-right="0"
   fit-margin-bottom="0"
   inkscape:zoom="2.6811619"
   inkscape:cx="-7.5449954"
   inkscape:cy="-22.619445"
   inkscape:window-x="262"
   inkscape:window-y="116"
   inkscape:window-maximized="0"
   inkscape:current-layer="Capa_1" />
<path
   d="M 495.64122,466.35088 373.78439,339.61366 C 405.11592,302.36815 422.28266,255.50567 422.28266,206.7198 422.28266,92.7363 329.54636,0 215.56286,0 101.57936,0 8.84306,92.7363 8.84306,206.7198 c 0,113.9835 92.7363,206.7198 206.7198,206.7198 42.791,0 83.56872,-12.90651 118.43247,-37.4073 L 456.7779,503.73121 c 5.13204,5.32977 12.03469,8.26879 19.43166,8.26879 7.00151,0 13.64351,-2.66938 18.68567,-7.5228 10.71348,-10.30903 11.05502,-27.40386 0.74599,-38.12632 z M 215.56286,53.9269 c 84.2518,0 152.79289,68.5411 152.79289,152.7929 0,84.2518 -68.54109,152.79289 -152.79289,152.79289 -84.2518,0 -152.792896,-68.54109 -152.792896,-152.79289 0,-84.2518 68.541096,-152.7929 152.792896,-152.7929 z"
   id="path72"
   inkscape:connector-curvature="0"
   style="stroke-width:8.98781776" />
<g
   id="g74"
   transform="translate(-0.984,455.034)">
</g>
<g
   id="g76"
   transform="translate(-0.984,455.034)">
</g>
<g
   id="g78"
   transform="translate(-0.984,455.034)">
</g>
<g
   id="g80"
   transform="translate(-0.984,455.034)">
</g>
<g
   id="g82"
   transform="translate(-0.984,455.034)">
</g>
<g
   id="g84"
   transform="translate(-0.984,455.034)">
</g>
<g
   id="g86"
   transform="translate(-0.984,455.034)">
</g>
<g
   id="g88"
   transform="translate(-0.984,455.034)">
</g>
<g
   id="g90"
   transform="translate(-0.984,455.034)">
</g>
<g
   id="g92"
   transform="translate(-0.984,455.034)">
</g>
<g
   id="g94"
   transform="translate(-0.984,455.034)">
</g>
<g
   id="g96"
   transform="translate(-0.984,455.034)">
</g>
<g
   id="g98"
   transform="translate(-0.984,455.034)">
</g>
<g
   id="g100"
   transform="translate(-0.984,455.034)">
</g>
<g
   id="g102"
   transform="translate(-0.984,455.034)">
</g>
</svg>