<?xml version="1.0" encoding="UTF-8" standalone="no"?>
<!-- Generator: Adobe Illustrator 16.0.0, SVG Export Plug-In . SVG Version: 6.00 Build 0)  -->

<svg
   xmlns:dc="http://purl.org/dc/elements/1.1/"
   xmlns:cc="http://creativecommons.org/ns#"
   xmlns:rdf="http://www.w3.org/1999/02/22-rdf-syntax-ns#"
   xmlns:svg="http://www.w3.org/2000/svg"
   xmlns="http://www.w3.org/2000/svg"
   xmlns:sodipodi="http://sodipodi.sourceforge.net/DTD/sodipodi-0.dtd"
   xmlns:inkscape="http://www.inkscape.org/namespaces/inkscape"
   version="1.1"
   id="Capa_1"
   x="0px"
   y="0px"
   width="512"
   height="512"
   viewBox="0 0 512 512"
   xml:space="preserve"
   sodipodi:docname="caret-down.svg"
   inkscape:version="0.92.1 r15371"><metadata
     id="metadata41"><rdf:RDF><cc:Work
         rdf:about=""><dc:format>image/svg+xml</dc:format><dc:type
           rdf:resource="http://purl.org/dc/dcmitype/StillImage" /><dc:title></dc:title></cc:Work></rdf:RDF></metadata><defs
     id="defs39" /><sodipodi:namedview
     pagecolor="#ffffff"
     bordercolor="#666666"
     borderopacity="1"
     objecttolerance="10"
     gridtolerance="10"
     guidetolerance="10"
     inkscape:pageopacity="0"
     inkscape:pageshadow="2"
     inkscape:window-width="1104"
     inkscape:window-height="743"
     id="namedview37"
     showgrid="false"
     fit-margin-top="0"
     fit-margin-left="0"
     fit-margin-right="0"
     fit-margin-bottom="0"
     inkscape:zoom="0.80721845"
     inkscape:cx="-8.0523432"
     inkscape:cy="82.229005"
     inkscape:window-x="0"
     inkscape:window-y="0"
     inkscape:window-maximized="0"
     inkscape:current-layer="Capa_1" /><g
     id="g4"
     transform="matrix(1.7512536,0,0,1.7512536,0,-8.781284e-4)"><path
       d="m 286.935,69.377 c -3.614,-3.617 -7.898,-5.424 -12.848,-5.424 H 18.274 c -4.952,0 -9.233,1.807 -12.85,5.424 C 1.807,72.998 0,77.279 0,82.228 c 0,4.948 1.807,9.229 5.424,12.847 l 127.907,127.907 c 3.621,3.617 7.902,5.428 12.85,5.428 4.948,0 9.233,-1.811 12.847,-5.428 L 286.935,95.074 c 3.613,-3.617 5.427,-7.898 5.427,-12.847 0,-4.948 -1.814,-9.229 -5.427,-12.85 z"
       id="path2"
       inkscape:connector-curvature="0" /></g><g
     id="g6"
     transform="translate(0,283.58999)" /><g
     id="g8"
     transform="translate(0,283.58999)" /><g
     id="g10"
     transform="translate(0,283.58999)" /><g
     id="g12"
     transform="translate(0,283.58999)" /><g
     id="g14"
     transform="translate(0,283.58999)" /><g
     id="g16"
     transform="translate(0,283.58999)" /><g
     id="g18"
     transform="translate(0,283.58999)" /><g
     id="g20"
     transform="translate(0,283.58999)" /><g
     id="g22"
     transform="translate(0,283.58999)" /><g
     id="g24"
     transform="translate(0,283.58999)" /><g
     id="g26"
     transform="translate(0,283.58999)" /><g
     id="g28"
     transform="translate(0,283.58999)" /><g
     id="g30"
     transform="translate(0,283.58999)" /><g
     id="g32"
     transform="translate(0,283.58999)" /><g
     id="g34"
     transform="translate(0,283.58999)" /></svg>